<svg width="256" height="256" viewBox="0 0 256 256" xmlns="http://www.w3.org/2000/svg" aria-hidden="true">
  <!-- CareLink mark — shield with heart cutout (purple theme) -->
  <path fill="#7C3AED" fill-rule="evenodd" d="M128 24c-22.4 10.2-56.2 19.8-92 34.5V120c0 62.2 45.9 104.6 92 118.1 46.1-13.5 92-55.9 92-118.1V58.5C184.2 43.8 150.4 34.2 128 24zm0 158.4c-27.2-14.5-52-37.7-52-66.4 0-19.4 15.2-34.4 33.8-34.4 8.7 0 15.7 3.4 18.2 9 2.5-5.6 9.5-9 18.2-9 18.6 0 33.8 15 33.8 34.4 0 28.7-24.8 51.9-52 66.4z"></path>
</svg>
